<svg viewBox="0 0 217 49" version="1.1" xmlns="http://www.w3.org/2000/svg" xmlns:xlink="http://www.w3.org/1999/xlink" aria-labelledby="title">
<title>Left Logic</title>
<style>
#leftlogic {
  fill: #B5B5B5;
}
#rectangle_square {
  fill: #FFF;
}
a:hover #square_big,
a:focus #square_big,
a:hover #rectangle_square,
a:focus #rectangle_square {
  fill: #FFF;
}
a:hover #square_small,
a:focus #square_small,
a:hover #left,
a:focus #left {
  fill: #008F69;
}
a:hover #rectangle_square_big,
a:focus #rectangle_square_big,
a:hover #rectangle,
a:focus #rectangle,
a:hover #logic,
a:focus #logic {
  fill: #FF5F00;
}
a:hover #rectangle_shade,
a:focus #rectangle_shade {
  fill: #F24D00;
}
a:hover #rectangle_border,
a:focus #rectangle_border {
  fill: #FFF;
  stroke: #FFF;
  stroke-width: 2%;
}
</style>
<a xlink:href="https://leftlogic.com" target="_blank" tabindex="0" role="link">
  <g id="leftlogic" transform="translate(1, 1)">
    <g id="symbol" shape-rendering="crispEdges">
      <g id="square">
        <rect id="square_big" x="0" y="0" width="15" height="15"></rect>
        <rect id="square_small" x="3.5" y="4" width="7" height="7"></rect>
      </g>
      <g id="rectangle" transform="translate(15.75, 15.75)">
        <polygon id="rectangle_border" points="0 0, 0 15, 15 30, 30 30, 30 15, 15 0" stroke-width="1.5"></polygon>
        <rect x="-15" y="15" width="15" height="15" transform="skewX(45)"></rect>
        <rect id="rectangle_shade" x="15" y="-15" width="15" height="15" transform="skewY(45)"></rect>
        <rect id="rectangle_square_big" x="0" y="0" width="15" height="15"></rect>
        <rect id="rectangle_square" x="4" y="4" width="7" height="7"></rect>
      </g>
    </g>
    <g id="name" transform="translate(54, 7)">
      <g id="left">
        <path id="left_l" d="M18.191,25.271 C18.191,24.351 18.466,23.168 18.469,23.156 C18.491,23.061 18.459,22.962 18.386,22.897 C18.313,22.833 18.209,22.814 18.117,22.848 C18.098,22.855 16.143,23.543 6.673,23.543 L5.214,23.543 C5.179,22.833 5.085,20.614 5.085,17.142 L5.085,10.154 C5.085,2.331 5.734,0.648 5.74,0.634 C5.779,0.544 5.764,0.44 5.703,0.363 C5.642,0.286 5.544,0.25 5.447,0.268 C5.435,0.271 4.14,0.513 3.039,0.513 C1.942,0.513 0.79,0.272 0.779,0.269 C0.687,0.251 0.591,0.283 0.528,0.352 C0.465,0.422 0.445,0.522 0.474,0.611 C0.479,0.627 0.995,2.308 0.995,10.153 L0.995,17.141 C0.995,25.005 0.581,26.682 0.577,26.696 C0.556,26.776 0.572,26.862 0.622,26.927 C0.671,26.992 0.749,27.031 0.831,27.031 L6.672,27.031 C16.234,27.031 18.141,27.379 18.16,27.382 C18.176,27.386 18.193,27.386 18.21,27.386 C18.285,27.386 18.357,27.355 18.408,27.298 C18.47,27.229 18.491,27.131 18.463,27.043 C18.461,27.035 18.191,26.181 18.191,25.271 L18.191,25.271 Z"></path>
        <path id="left_e" d="M38.125,13.186 C38.125,10.203 35.874,6.718 29.527,6.718 C23.229,6.718 19.468,10.748 19.468,17.499 C19.468,24.66 25.326,27.21 30.808,27.21 C34.371,27.21 37.219,26.274 37.338,26.234 C37.47,26.19 37.545,26.051 37.51,25.916 C37.509,25.91 37.341,25.26 37.341,24.521 C37.341,23.72 37.68,22.69 37.684,22.68 C37.719,22.575 37.685,22.459 37.599,22.39 C37.513,22.322 37.393,22.312 37.298,22.369 C37.275,22.383 34.931,23.757 31.807,23.757 C26.91,23.757 23.942,21.456 23.813,17.584 L32.804,17.584 C35.419,17.585 38.125,15.94 38.125,13.186 L38.125,13.186 Z M23.816,14.846 C23.945,12.612 25.698,9.671 29.42,9.671 C32.032,9.671 33.857,11.116 33.857,13.186 C33.857,14.136 32.793,14.846 31.842,14.846 L23.816,14.846 L23.816,14.846 Z"></path>
        <path id="left_ft" d="M45.996,7.36 L45.996,5.985 C45.996,3.952 47.067,3.006 49.365,3.006 C51.79,3.006 52.586,4.54 52.618,4.604 C52.67,4.711 52.787,4.77 52.904,4.748 C53.02,4.726 53.109,4.629 53.118,4.51 C53.119,4.502 53.19,3.674 53.459,2.868 C53.724,2.139 54.263,1.492 54.268,1.485 C54.317,1.428 54.338,1.352 54.328,1.278 C54.317,1.203 54.276,1.137 54.214,1.096 C54.135,1.042 52.261,-0.198 49.365,-0.198 C44.7,-0.198 42.334,1.883 42.334,5.986 L42.334,7.361 L41.958,7.361 C40.475,7.361 39.177,7.085 39.165,7.082 C39.076,7.062 38.983,7.091 38.919,7.156 C38.856,7.222 38.83,7.316 38.852,7.405 C38.854,7.413 39.058,8.239 39.058,8.98 C39.058,9.716 38.856,10.433 38.854,10.44 C38.83,10.526 38.851,10.619 38.909,10.686 C38.968,10.753 39.056,10.788 39.144,10.775 C39.157,10.773 40.463,10.599 41.958,10.599 L42.334,10.599 L42.334,20.709 C42.334,29.267 41.61,30.435 41.526,30.541 C41.421,30.611 41.379,30.747 41.428,30.865 C41.47,30.964 41.568,31.026 41.672,31.026 C41.698,31.026 41.724,31.023 41.75,31.015 C41.767,31.009 41.788,30.999 41.807,30.989 L41.808,30.989 C42.406,30.667 43.614,30.095 44.342,29.989 C45.404,29.849 46.409,29.67 46.42,29.667 C46.542,29.645 46.633,29.541 46.637,29.416 C46.639,29.336 46.608,29.264 46.554,29.213 C46.476,29.065 46.068,27.939 46.068,20.709 L46.068,10.599 L46.444,10.599 L57.253,10.599 L57.629,10.599 L57.629,21.208 C57.629,25.239 59.755,27.284 63.947,27.284 C66.044,27.284 68.372,26.27 68.47,26.228 C68.593,26.174 68.656,26.036 68.617,25.908 C68.615,25.904 68.486,25.465 68.486,24.737 C68.486,23.912 68.836,21.591 68.84,21.568 C68.859,21.441 68.782,21.318 68.66,21.277 C68.539,21.236 68.404,21.292 68.343,21.407 C68.332,21.43 67.099,23.759 64.661,23.759 C62.023,23.759 61.507,22.236 61.507,19.603 L61.507,10.599 L61.741,10.599 C66.691,10.599 68.058,11.01 68.07,11.014 C68.16,11.042 68.26,11.021 68.33,10.958 C68.401,10.894 68.431,10.797 68.41,10.703 C68.407,10.694 68.203,9.797 68.203,9.052 C68.203,8.308 68.407,7.409 68.41,7.4 C68.43,7.312 68.404,7.221 68.34,7.156 C68.278,7.091 68.183,7.065 68.097,7.082 C68.084,7.085 66.717,7.361 61.742,7.361 L61.508,7.361 L61.508,7.34 C61.508,5.033 61.858,2.554 61.861,2.529 C61.876,2.428 61.832,2.328 61.747,2.272 C61.663,2.215 61.554,2.212 61.466,2.264 C61.452,2.272 60.04,3.082 57.682,3.082 C57.604,3.082 57.53,3.117 57.48,3.176 C57.43,3.235 57.409,3.315 57.422,3.391 C57.425,3.412 57.774,5.496 57.774,7.34 L45.996,7.36 L45.996,7.36 Z"></path>
      </g>
      <g id="logic" transform="translate(77, 1)">
        <path id="logic_l" d="M5.678,22.809 L3.969,22.809 C3.969,22.809 3.826,20.457 3.826,16.143 L3.826,9.155 C3.826,1.097 4.503,-0.47 4.503,-0.47 C4.503,-0.47 3.185,-0.221 2.045,-0.221 C0.905,-0.221 -0.269,-0.47 -0.269,-0.47 C-0.269,-0.47 0.265,1.097 0.265,9.155 L0.265,16.143 C0.265,24.199 -0.162,25.768 -0.162,25.768 L5.678,25.768 C15.436,25.768 17.217,26.125 17.217,26.125 C17.217,26.125 16.932,25.233 16.932,24.271 C16.932,23.308 17.217,22.096 17.217,22.096 C17.217,22.096 15.4,22.809 5.678,22.809 L5.678,22.809 Z"></path>
        <path id="logic_o" d="M28.403,6.054 C21.139,6.054 18.681,10.939 18.681,16.25 C18.681,22.239 21.209,26.018 28.403,26.018 C34.529,26.018 37.805,21.704 37.805,16.214 C37.805,10.974 35.954,6.054 28.403,6.054 L28.403,6.054 Z M28.475,23.415 C23.987,23.415 22.064,21.062 22.064,16.356 C22.064,12.542 23.062,8.621 28.475,8.621 C33.959,8.621 34.387,13.184 34.387,16.321 C34.386,20.171 32.677,23.415 28.475,23.415 L28.475,23.415 Z"></path>
        <path id="logic_g" d="M55.449,7.052 C53.562,7.052 51.282,5.983 48.326,5.983 C44.907,5.983 40.348,7.052 40.348,12.756 C40.348,16.428 43.411,17.89 43.411,17.89 C43.411,17.89 39.208,18.602 39.208,21.562 C39.208,23.166 40.561,23.879 41.772,24.414 C39.493,25.376 38.922,26.945 38.922,28.085 C38.922,31.686 43.195,32.863 48.609,32.863 C51.885,32.863 58.189,31.829 58.189,27.194 C58.189,23.238 53.595,22.062 48.894,22.062 L45.653,22.062 C44.335,22.062 42.554,21.669 42.554,20.742 C42.554,19.637 44.014,19.53 46.187,19.53 L48.537,19.53 C54.307,19.53 56.87,16.464 56.87,13.255 C56.87,10.867 55.802,9.762 55.802,9.762 L57.227,9.762 C58.366,9.762 60.004,10.047 60.004,10.047 C60.004,10.047 59.79,9.333 59.79,8.549 C59.79,7.8 60.004,5.983 60.004,5.983 C60.004,5.983 58.297,7.052 55.449,7.052 L55.449,7.052 Z M44.195,25.091 L47.684,25.091 C52.492,25.091 54.094,25.626 54.094,27.872 C54.094,29.726 51.637,30.546 48.61,30.546 C44.835,30.546 42.414,29.654 42.414,27.266 C42.415,25.626 44.195,25.091 44.195,25.091 L44.195,25.091 Z M48.254,17.105 C45.834,17.105 43.732,15.394 43.732,12.755 C43.732,9.69 45.548,8.335 48.575,8.335 C51.887,8.335 53.453,10.189 53.453,12.755 C53.454,15.537 51.745,17.105 48.254,17.105 L48.254,17.105 Z"></path>
        <path id="logic_dot" d="M63.231,-0.399 C61.842,-0.399 60.524,0.313 60.524,1.526 C60.524,2.738 61.842,3.416 63.231,3.416 C64.727,3.416 66.009,2.738 66.009,1.526 C66.009,0.313 64.727,-0.399 63.231,-0.399 L63.231,-0.399 Z"></path>
        <path id="logic_i" d="M65.226,6.232 C65.226,6.232 64.3,6.482 63.232,6.482 C62.235,6.482 61.309,6.232 61.309,6.232 C61.309,6.232 61.665,7.8 61.665,15.857 L61.665,16.143 C61.665,24.199 61.309,25.768 61.309,25.768 C61.309,25.768 62.235,25.519 63.232,25.519 C64.3,25.519 65.226,25.768 65.226,25.768 C65.226,25.768 64.87,24.199 64.87,16.143 L64.87,15.857 C64.87,7.8 65.226,6.232 65.226,6.232 L65.226,6.232 Z"></path>
        <path id="logic_c" d="M84.707,20.884 C84.707,20.884 82.106,23.238 78.688,23.238 C73.88,23.238 71.494,20.35 71.494,16.144 C71.494,10.618 74.378,8.8 77.869,8.8 C81.857,8.8 83.069,11.295 83.069,11.295 C83.069,11.295 83.104,9.833 83.389,9.013 C83.674,8.229 84.208,7.302 84.208,7.302 C84.208,7.302 82.498,6.054 77.797,6.054 C71.316,6.054 67.898,10.76 67.898,16.179 C67.898,22.882 71.958,26.019 77.691,26.019 C81.003,26.019 84.493,25.021 84.493,25.021 C84.493,25.021 84.351,24.094 84.351,23.31 C84.351,22.453 84.707,20.884 84.707,20.884 L84.707,20.884 Z"></path>
      </g>
    </g>
  </g>
  <rect x="0" y="0" width="100%" height="100%" fill-opacity="0"></rect>
</a>
</svg>