<?xml version="1.0" encoding="UTF-8"?>
<svg width="192px" height="191px" viewBox="0 0 192 191" version="1.1" xmlns="http://www.w3.org/2000/svg" xmlns:xlink="http://www.w3.org/1999/xlink">
    <!-- Generator: Sketch 52.6 (67491) - http://www.bohemiancoding.com/sketch -->
    <title>logo</title>
    <desc>Created with Sketch.</desc>
    <g id="logo" stroke="none" stroke-width="1" fill="none" fill-rule="evenodd">
        <path d="M84.5,189.6 C97.5,186.5 114.9,177.3 138.5,161.2 C153.2,151.1 157.1,148 166.3,139.1 C183.1,122.9 190.4,107.1 191.7,84 C193,60.1 184.7,39.1 168.9,26.3 C148.8,10 108.3,-0.5 66,-0.4 C50.3,-0.4 46.1,-0.1 38.6,1.8 C13,8.2 2.1,22.1 0.3,50.5 C-1.6,81.7 13.3,134.3 32.1,163 C34.5,166.6 39.6,172.7 43.4,176.6 C56.3,189.5 68.4,193.3 84.5,189.6 Z" id="Path" fill="#000000" fill-rule="nonzero"></path>
        <path d="M62,109 L62,88 L55,88 L48,88 L48,81.5 L48,75 L55,75 L62,75 L62,71.3 C62,58.3 71.6,49 85,49 C92.5,49 93.3,49.7 92.5,55.2 C91.6,61.3 91.2,61.6 85.5,62.3 C79.5,62.9 77,65.5 77,71.1 L77,75 L87.5,75 L98,75 L98,69.7 C98,62.2 101.3,56.4 107.5,52.5 C111.8,49.8 113.2,49.5 120.1,49.5 C124.3,49.5 128,49.7 128.3,50 C128.6,50.3 128.4,53.1 127.8,56.3 L126.8,62 L122.5,62 C116.6,62 113.1,65 112.3,70.8 L111.7,75 L120.4,75 L129,75 L129,81.5 L129,88 L120.5,88 L112,88 L112,109 L112,130 L105,130 L98,130 L98,109 L98,88 L87.5,88 L77,88 L76.8,108.8 L76.5,129.5 L69.3,129.8 L62,130.1 L62,109 Z" id="Path" fill="#FFFFFF"></path>
    </g>
</svg>