<svg xmlns="http://www.w3.org/2000/svg" width="16" height="16"><path d="M14.72 0H1.37A1.31 1.31 0 0 0 0 1.25v13.38A1.41 1.41 0 0 0 1.37 16h13.35A1.34 1.34 0 0 0 16 14.63V1.25A1.23 1.23 0 0 0 14.72 0ZM5 13.34H2.67V6.21H5v7.13ZM3.89 5.13A1.18 1.18 0 0 1 2.67 3.9a1.18 1.18 0 0 1 1.24-1.23A1.18 1.18 0 0 1 5.13 3.9a1.18 1.18 0 0 1-1.24 1.23Zm9.45 8.21H11v-3.9c0-.93-.33-1.57-1.16-1.57a1.25 1.25 0 0 0-1.17.84 1.431 1.431 0 0 0-.08.57v4.06h-2.3V6.21h2.3v1A2.32 2.32 0 0 1 10.69 6c1.51 0 2.65 1 2.65 3.13v4.21Z"/></svg>